<svg width="76" height="28" viewBox="0 0 76 28" fill="none" xmlns="http://www.w3.org/2000/svg">
<g id="Logo01" clip-path="url(#clip0_315_911)">
<g id="Union">
<path d="M8.33814 3.22801H3.10824L3.107 3.22678C2.90285 4.11142 2.51559 5.31527 1.79179 6.40406L0.261302 5.79657C1.00118 3.78973 1.16079 1.9326 1.16079 1.9326H8.33814V1.29418H1.55177V0H17.2873V1.29418H10.5009V1.9326H18.1001V1.93755C18.1113 2.03035 18.3897 4.40094 17.4865 6.61935L15.8656 6.32735C16.0549 5.10246 16.0624 3.9679 16.0364 3.22801H10.5009V6.50552H8.33814V3.22801Z" fill="white"/>
<path d="M43.709 1.93384C43.709 1.93384 44.2496 11.9482 38.9208 16.6746L40.1951 17.9378C40.1951 17.9378 44.6592 15.4249 45.7504 6.43623H52.496C52.496 6.43623 52.4972 12.6164 52.2844 14.2013C52.0493 15.9545 50.1588 15.7949 50.1588 15.7949L47.9478 15.6501L48.3536 17.4454C49.8161 17.6483 51.3515 17.5753 51.3515 17.5753C54.7528 17.4986 54.7156 13.845 54.7156 13.845L54.9086 5.07648H45.8841C45.9595 4.09904 45.9967 3.05356 45.9868 1.93384H55.9826V0.639662H39.3563V1.93384H43.709Z" fill="white"/>
<path d="M37.4781 7.93827H20.8518V9.23245H37.4781V7.93827Z" fill="white"/>
<path d="M3.3965 4.12132H7.63907V5.00843H3.3965V4.12132Z" fill="white"/>
<path d="M7.63907 5.6184H3.3965V6.50552H7.63907V5.6184Z" fill="white"/>
<path d="M11.0799 4.12132H15.3225V5.00843H11.0799V4.12132Z" fill="white"/>
<path d="M15.3225 5.6184H11.0799V6.50552H15.3225V5.6184Z" fill="white"/>
<path d="M7.64898 7.24911C5.7337 8.61876 3.16638 9.74343 0.00146484 9.29678L0.0682769 10.5415C0.0682769 10.5415 4.36776 11.8678 9.19803 8.58535H9.75727C14.5875 11.8666 18.887 10.5415 18.887 10.5415L18.9538 9.29678C15.7889 9.74343 13.2191 8.61876 11.3051 7.24911H7.64898Z" fill="white"/>
<path d="M10.2079 9.52204L10.2089 9.52195L10.2076 9.51948L10.2079 9.52204Z" fill="white"/>
<path d="M10.2079 9.52204L8.09686 9.71126L8.6561 11.0166H4.47663V12.3107H11.6206C11.1727 12.9813 10.4279 13.9031 9.25369 14.8756C7.71949 13.7051 6.18652 12.7314 6.18652 12.7314L5.19671 14.3126C8.26017 15.9805 10.6246 17.845 10.6246 17.845L11.5661 16.8898C11.2853 16.5855 10.945 16.265 10.5726 15.9421C13.2822 14.0602 14.0567 12.3256 14.0629 12.3095V11.0153H10.3759L10.2079 9.52204Z" fill="white"/>
<path d="M65.5293 8.21294L65.5282 8.2133L65.5281 8.21294H65.5293Z" fill="white"/>
<path d="M65.5282 8.2133C64.9308 8.4212 64.1753 8.76747 63.3715 9.17181V5.82255H65.6308V4.52837H63.3715V0.0284546H61.2088V4.52837H60.3712C60.6025 2.85065 60.7287 1.44017 60.7287 1.44017L58.6204 1.38202C58.6155 4.86986 57.9424 8.65464 57.9424 8.65464L59.4766 8.9689C59.7513 8.16221 59.9876 6.99671 60.1781 5.82255H61.2088V10.3299C59.4148 11.3358 57.883 12.286 57.883 12.286L59.2255 14.106C59.854 13.6161 60.532 13.1298 61.2088 12.6658V18.0368H63.3715V11.2517C64.9701 10.2495 66.1999 9.56403 66.1999 9.56403L65.5282 8.2133Z" fill="white"/>
<path d="M68.5754 0.0866059C68.5754 0.0866059 68.4801 1.20138 68.2797 2.59577L68.2785 2.59701H75.999L75.806 13.9452C75.806 13.9452 75.8431 17.5988 72.4418 17.6755C72.4418 17.6755 71.4236 17.6879 69.9611 17.485L69.5788 15.7182L71.2491 15.8951C71.2491 15.8951 73.1397 16.0547 73.3747 14.3015C73.5875 12.7153 73.5863 3.92954 73.5863 3.92954H72.9677C72.2959 14.3782 67.2478 17.219 67.2478 17.219L66.4226 16.3504C70.1418 13.0519 71.0004 7.17735 71.1811 3.92954H70.5563C69.6036 13.4292 64.9342 16.0609 64.9342 16.0609L64.1089 15.1923C67.4198 12.2551 68.4641 7.2788 68.7808 3.92954H68.0657C67.8986 4.85996 67.6908 5.80028 67.4359 6.54635L65.9017 6.23208C65.9017 6.23208 66.4622 3.51753 66.4671 0.0284546L68.5754 0.0866059Z" fill="white"/>
</g>
<g id="Union_2">
<path fill-rule="evenodd" clip-rule="evenodd" d="M25.5088 23.8779C25.5088 20.7192 26.5951 19.9224 28.2345 19.9224C29.8738 19.9224 30.9602 20.7204 30.9602 23.8779C30.9602 27.0354 29.885 27.8334 28.2345 27.8334C26.584 27.8334 25.5088 27.0465 25.5088 23.8779ZM29.5645 23.8779C29.5645 21.6731 29.1661 21.1188 28.2345 21.1188C27.3028 21.1188 26.9156 21.6731 26.9156 23.8779C26.9156 26.0827 27.3041 26.637 28.2345 26.637C29.1649 26.637 29.5645 26.0938 29.5645 23.8779Z" fill="white"/>
<path d="M34.4517 21.3081L32.5575 21.6743V20.5002L34.8513 20.035H35.8708V27.7258H34.4529V21.3093L34.4517 21.3081Z" fill="white"/>
<path d="M38.8069 26.0171C38.0645 26.0171 37.921 26.1285 37.921 26.9042C37.921 27.6577 38.0967 27.7901 38.8069 27.7901C39.5171 27.7901 39.694 27.68 39.694 26.9042C39.694 26.1285 39.5492 26.0171 38.8069 26.0171Z" fill="white"/>
<path fill-rule="evenodd" clip-rule="evenodd" d="M46.0882 25.6843H42.8738L42.1425 27.7233H40.6467L43.5283 20.0325H45.4782L48.3375 27.7233H46.7971L46.0882 25.6843ZM45.6564 24.4656L44.5589 21.3291H44.4265L43.3068 24.4656H45.6564Z" fill="white"/>
<path d="M50.7551 20.0337H49.3026V27.7245H50.7551V20.0337Z" fill="white"/>
</g>
</g>
<defs>
<clipPath id="clip0_315_911">
<rect width="76" height="27.8347" fill="white"/>
</clipPath>
</defs>
</svg>
