<svg width="12" height="12" viewBox="0 0 12 12" fill="none" xmlns="http://www.w3.org/2000/svg">
<g id="Group 48096086">
<rect id="Rectangle 9622" x="9.09326" y="7.14667" width="1.2" height="4.29333" rx="0.6" fill="white"/>
<path id="Union" fill-rule="evenodd" clip-rule="evenodd" d="M9.44071 1.29539C9.18828 1.08071 8.80962 1.11131 8.59494 1.36373L5.24198 5.30615C5.15548 5.40786 5.1088 5.53006 5.10041 5.65378C5.0957 5.68405 5.09326 5.71508 5.09326 5.74668V10.7867C5.09326 11.118 5.36189 11.3867 5.69326 11.3867C6.02463 11.3867 6.29326 11.118 6.29326 10.7867V5.9223L9.50905 2.14116C9.72373 1.88874 9.69313 1.51007 9.44071 1.29539Z" fill="white"/>
<rect id="Rectangle 9625" x="0.719971" y="1.32077" width="1.2" height="4.94721" rx="0.6" transform="rotate(-39.3441 0.719971 1.32077)" fill="white"/>
<circle id="Ellipse 67" cx="10.52" cy="5.42666" r="0.733333" fill="#00FF25"/>
</g>
</svg>
