<svg width="40" height="40" viewBox="0 0 40 40" fill="none" xmlns="http://www.w3.org/2000/svg">
  <g filter="url(#filter0_d_470_3518)">
    <path d="M36 35.3C36 35.5232 35.9547 35.7443 35.8668 35.9506C35.7788 36.1568 35.6499 36.3442 35.4874 36.5021C35.3249 36.6599 35.132 36.7852 34.9197 36.8706C34.7073 36.956 34.4798 37 34.25 37H9.75C9.52018 37 9.29262 36.956 9.0803 36.8706C8.86798 36.7852 8.67506 36.6599 8.51256 36.5021C8.35006 36.3442 8.22116 36.1568 8.13321 35.9506C8.04527 35.7443 8 35.5232 8 35.3V4.70003C8 4.47678 8.04527 4.25572 8.13321 4.04947C8.22116 3.84321 8.35006 3.65581 8.51256 3.49795C8.67506 3.34009 8.86798 3.21487 9.0803 3.12943C9.29262 3.044 9.52018 3.00003 9.75 3.00003H24.7825C25.0128 2.99873 25.2411 3.04162 25.4543 3.12622C25.6675 3.21082 25.8615 3.33547 26.025 3.49303L35.4925 12.69C35.6547 12.8489 35.783 13.0373 35.8701 13.2444C35.9572 13.4515 36.0013 13.6733 36 13.897V35.3Z" fill="#FF8754"></path>
    <rect x="4" y="19" width="26" height="14" rx="2" fill="#FF521C"></rect>
    <path d="M35.9998 13.7649V14H26.716C26.2609 14 25.8244 13.8231 25.5026 13.5081C25.1808 13.1932 25 12.766 25 12.3206V3.00003C25.2258 2.99875 25.4497 3.04111 25.6588 3.12469C25.8679 3.20826 26.058 3.3314 26.2184 3.48705L35.5193 12.5725C35.8342 12.8922 36.007 13.3209 35.9998 13.7649Z" fill="#FF521C"></path>
    <path d="M8.32136 27.173V25.831H9.99336C10.206 25.831 10.4004 25.787 10.5764 25.699C10.7524 25.611 10.8917 25.4827 10.9944 25.314C11.097 25.1453 11.1484 24.94 11.1484 24.698C11.1484 24.4633 11.097 24.2617 10.9944 24.093C10.8917 23.9243 10.7524 23.796 10.5764 23.708C10.4004 23.62 10.206 23.576 9.99336 23.576H8.32136V22.234H10.2464C10.7377 22.234 11.1814 22.333 11.5774 22.531C11.9734 22.729 12.285 23.015 12.5124 23.389C12.747 23.7557 12.8644 24.192 12.8644 24.698C12.8644 25.204 12.747 25.644 12.5124 26.018C12.285 26.3847 11.9734 26.6707 11.5774 26.876C11.1814 27.074 10.7377 27.173 10.2464 27.173H8.32136ZM7.00136 30V22.234H8.72836V30H7.00136ZM15.4394 30V28.482H17.3644C17.8337 28.482 18.2444 28.3903 18.5964 28.207C18.9484 28.0163 19.2197 27.7413 19.4104 27.382C19.6011 27.0227 19.6964 26.5973 19.6964 26.106C19.6964 25.6147 19.5974 25.193 19.3994 24.841C19.2087 24.489 18.9374 24.2177 18.5854 24.027C18.2407 23.8363 17.8337 23.741 17.3644 23.741H15.3844V22.234H17.3864C17.9731 22.234 18.5121 22.3293 19.0034 22.52C19.5021 22.7033 19.9347 22.971 20.3014 23.323C20.6754 23.6677 20.9614 24.0783 21.1594 24.555C21.3647 25.0243 21.4674 25.545 21.4674 26.117C21.4674 26.6817 21.3647 27.2023 21.1594 27.679C20.9614 28.1557 20.6791 28.5663 20.3124 28.911C19.9457 29.2557 19.5131 29.5233 19.0144 29.714C18.5231 29.9047 17.9877 30 17.4084 30H15.4394ZM14.2734 30V22.234H16.0004V30H14.2734ZM23.0064 30V22.234H24.7334V30H23.0064ZM24.3264 26.953V25.468H28.2094V26.953H24.3264ZM24.3264 23.719V22.234H28.3854V23.719H24.3264Z" fill="white"></path>
  </g>
  <defs>
    <filter id="filter0_d_470_3518" x="2" y="2" width="36" height="38" filterUnits="userSpaceOnUse" color-interpolation-filters="sRGB">
      <feFlood flood-opacity="0" result="BackgroundImageFix"></feFlood>
      <feColorMatrix in="SourceAlpha" type="matrix" values="0 0 0 0 0 0 0 0 0 0 0 0 0 0 0 0 0 0 127 0" result="hardAlpha"></feColorMatrix>
      <feOffset dy="1"></feOffset>
      <feGaussianBlur stdDeviation="1"></feGaussianBlur>
      <feComposite in2="hardAlpha" operator="out"></feComposite>
      <feColorMatrix type="matrix" values="0 0 0 0 0 0 0 0 0 0 0 0 0 0 0 0 0 0 0.24 0"></feColorMatrix>
      <feBlend mode="normal" in2="BackgroundImageFix" result="effect1_dropShadow_470_3518"></feBlend>
      <feBlend mode="normal" in="SourceGraphic" in2="effect1_dropShadow_470_3518" result="shape"></feBlend>
    </filter>
  </defs>
</svg>