<svg width="32" height="32" viewBox="0 0 32 32" fill="none" xmlns="http://www.w3.org/2000/svg">
<g id="Model_32">
<rect width="32" height="32" rx="16" fill="url(#paint0_linear_391_997)"/>
<g id="Union">
<path fill-rule="evenodd" clip-rule="evenodd" d="M4 15.917C4 12.9142 5.03269 12.1567 6.59113 12.1567C8.14957 12.1567 9.18226 12.9154 9.18226 15.917C9.18226 18.9186 8.16016 19.6772 6.59113 19.6772C5.0221 19.6772 4 18.9292 4 15.917ZM7.85552 15.917C7.85552 13.821 7.47679 13.2941 6.59113 13.2941C5.70546 13.2941 5.33732 13.821 5.33732 15.917C5.33732 18.0129 5.70664 18.5399 6.59113 18.5399C7.47562 18.5399 7.85552 18.0235 7.85552 15.917Z" fill="white"/>
<path d="M12.5014 13.4741L10.7007 13.8222V12.706L12.8813 12.2638H13.8505V19.5749H12.5026V13.4752L12.5014 13.4741Z" fill="white"/>
<path d="M16.6416 17.9506C15.9359 17.9506 15.7995 18.0565 15.7995 18.7939C15.7995 19.5102 15.9665 19.6361 16.6416 19.6361C17.3167 19.6361 17.4849 19.5314 17.4849 18.7939C17.4849 18.0565 17.3473 17.9506 16.6416 17.9506Z" fill="white"/>
<path fill-rule="evenodd" clip-rule="evenodd" d="M23.5634 17.6342H20.5077L19.8126 19.5726H18.3906L21.1299 12.2614H22.9836L25.7017 19.5726H24.2374L23.5634 17.6342ZM23.153 16.4757L22.1097 13.4941H21.9838L20.9194 16.4757H23.153Z" fill="white"/>
<path d="M28 12.2626H26.6192V19.5737H28V12.2626Z" fill="white"/>
</g>
</g>
<defs>
<linearGradient id="paint0_linear_391_997" x1="9.31324e-06" y1="32.0001" x2="34.2651" y2="29.3562" gradientUnits="userSpaceOnUse">
<stop stop-color="#165A4B"/>
<stop offset="1" stop-color="#147B64"/>
</linearGradient>
</defs>
</svg>
