<svg width="153" height="56" viewBox="0 0 153 56" fill="none" xmlns="http://www.w3.org/2000/svg">
<g id="Logo01" clip-path="url(#clip0_1027_4441)">
<g id="Union">
<path d="M17.1759 6.45603H6.71605L6.71358 6.45355C6.30528 8.22284 5.53076 10.6305 4.08316 12.8081L1.02218 11.5931C2.50194 7.57946 2.82115 3.8652 2.82115 3.8652H17.1759V2.58835H3.6031V0H35.0741V2.58835H21.5013V3.8652H36.6998V3.8751C36.7221 4.06069 37.2789 8.80188 35.4725 13.2387L32.2309 12.6547C32.6095 10.2049 32.6243 7.93579 32.5723 6.45603H21.5013V13.011H17.1759V6.45603Z" fill="#0B3F36"/>
<path d="M87.9175 3.86767C87.9175 3.86767 88.9989 23.8965 78.3411 33.3491L80.8898 35.8756C80.8898 35.8756 89.8179 30.8499 92.0005 12.8725H105.492C105.492 12.8725 105.494 25.2327 105.068 28.4026C104.598 31.909 100.817 31.5897 100.817 31.5897L96.3952 31.3002L97.2068 34.8908C100.132 35.2966 103.203 35.1506 103.203 35.1506C110.005 34.9972 109.931 27.6899 109.931 27.6899L110.317 10.153H92.2677C92.4186 8.19809 92.4929 6.10712 92.4731 3.86767H112.465V1.27932H79.2121V3.86767H87.9175Z" fill="#0B3F36"/>
<path d="M75.4558 15.8765H42.2032V18.4649H75.4558V15.8765Z" fill="#0B3F36"/>
<path d="M7.29258 8.24263H15.7777V10.0169H7.29258V8.24263Z" fill="#0B3F36"/>
<path d="M15.7777 11.2368H7.29258V13.011H15.7777V11.2368Z" fill="#0B3F36"/>
<path d="M22.6594 8.24263H31.1445V10.0169H22.6594V8.24263Z" fill="#0B3F36"/>
<path d="M31.1445 11.2368H22.6594V13.011H31.1445V11.2368Z" fill="#0B3F36"/>
<path d="M15.7975 14.4982C11.967 17.2375 6.83233 19.4869 0.502502 18.5936L0.636127 21.0829C0.636127 21.0829 9.23509 23.7356 18.8956 17.1707H20.0141C29.6746 23.7331 38.2736 21.0829 38.2736 21.0829L38.4072 18.5936C32.0774 19.4869 26.9378 17.2375 23.1097 14.4982H15.7975Z" fill="#0B3F36"/>
<path d="M20.9154 19.0441L20.9173 19.0439L20.9148 19.039L20.9154 19.0441Z" fill="#0B3F36"/>
<path d="M20.9154 19.0441L16.6933 19.4225L17.8118 22.0331H9.45283V24.6215H23.7407C22.8449 25.9627 21.3553 27.8062 19.007 29.7512C15.9386 27.4103 12.8726 25.4628 12.8726 25.4628L10.893 28.6253C17.0199 31.9609 21.7487 35.69 21.7487 35.69L23.6318 33.7797C23.0701 33.171 22.3896 32.5301 21.6448 31.8842C27.064 28.1205 28.6131 24.6512 28.6254 24.619V22.0307H21.2514L20.9154 19.0441Z" fill="#0B3F36"/>
<path d="M131.558 16.4259L131.556 16.4266L131.556 16.4259H131.558Z" fill="#0B3F36"/>
<path d="M131.556 16.4266C130.361 16.8424 128.85 17.5349 127.243 18.3436V11.6451H131.761V9.05675H127.243V0.0569092H122.917V9.05675H121.242C121.705 5.70129 121.957 2.88034 121.957 2.88034L117.74 2.76404C117.731 9.73972 116.384 17.3093 116.384 17.3093L119.453 17.9378C120.002 16.3244 120.475 13.9934 120.856 11.6451H122.917V20.6598C119.329 22.6716 116.266 24.572 116.266 24.572L118.95 28.212C120.208 27.2321 121.564 26.2596 122.917 25.3317V36.0736H127.243V22.5033C130.44 20.4989 132.899 19.1281 132.899 19.1281L131.556 16.4266Z" fill="#0B3F36"/>
<path d="M137.65 0.173212C137.65 0.173212 137.46 2.40276 137.059 5.19154L137.057 5.19402H152.498L152.111 27.8903C152.111 27.8903 152.186 35.1976 145.383 35.351C145.383 35.351 143.347 35.3758 140.422 34.9699L139.657 31.4363L142.998 31.7902C142.998 31.7902 146.779 32.1094 147.249 28.603C147.675 25.4307 147.672 7.85908 147.672 7.85908H146.435C145.091 28.7564 134.995 34.4379 134.995 34.4379L133.345 32.7008C140.783 26.1037 142.5 14.3547 142.862 7.85908H141.612C139.707 26.8585 130.368 32.1218 130.368 32.1218L128.717 30.3847C135.339 24.5101 137.428 14.5576 138.061 7.85908H136.631C136.297 9.71992 135.881 11.6006 135.371 13.0927L132.303 12.4642C132.303 12.4642 133.424 7.03506 133.434 0.0569092L137.65 0.173212Z" fill="#0B3F36"/>
</g>
<g id="Union_2">
<path fill-rule="evenodd" clip-rule="evenodd" d="M51.5172 47.7558C51.5172 41.4383 53.6898 39.8447 56.9686 39.8447C60.2473 39.8447 62.42 41.4408 62.42 47.7558C62.42 54.0708 60.2696 55.6668 56.9686 55.6668C53.6676 55.6668 51.5172 54.093 51.5172 47.7558ZM59.6287 47.7558C59.6287 43.3462 58.8319 42.2376 56.9686 42.2376C55.1053 42.2376 54.3307 43.3462 54.3307 47.7558C54.3307 52.1654 55.1077 53.274 56.9686 53.274C58.8294 53.274 59.6287 52.1876 59.6287 47.7558Z" fill="#155849"/>
<path d="M69.403 42.6162L65.6146 43.3487V41.0003L70.2023 40.0699H72.2413V55.4515H69.4055V42.6187L69.403 42.6162Z" fill="#155849"/>
<path d="M78.1134 52.0342C76.6287 52.0342 76.3416 52.2569 76.3416 53.8085C76.3416 55.3154 76.693 55.5802 78.1134 55.5802C79.5338 55.5802 79.8876 55.36 79.8876 53.8085C79.8876 52.2569 79.5981 52.0342 78.1134 52.0342Z" fill="#155849"/>
<path fill-rule="evenodd" clip-rule="evenodd" d="M92.676 51.3686H86.2472L84.7847 55.4466H81.793L87.5562 40.065H91.456L97.1746 55.4466H94.0939L92.676 51.3686ZM91.8124 48.9312L89.6175 42.6583H89.3527L87.1132 48.9312H91.8124Z" fill="#155849"/>
<path d="M102.01 40.0674H99.1048V55.4491H102.01V40.0674Z" fill="#155849"/>
</g>
</g>
<defs>
<clipPath id="clip0_1027_4441">
<rect width="152" height="55.6693" fill="white" transform="translate(0.5)"/>
</clipPath>
</defs>
</svg>
