<svg width="16" height="16" viewBox="0 0 16 16" fill="none" xmlns="http://www.w3.org/2000/svg">
<g id="edit">
<g id="Vector">
<path fill-rule="evenodd" clip-rule="evenodd" d="M10.2278 1.4802C10.4806 1.2274 10.8905 1.2274 11.1433 1.4802L14.0423 4.37919C14.2951 4.63199 14.2951 5.04186 14.0423 5.29466L5.37766 13.9593C5.3372 13.9997 5.28231 14.0225 5.22509 14.0225H1.71578C1.59661 14.0225 1.5 13.9259 1.5 13.8067V10.2974C1.5 10.2401 1.52273 10.1853 1.5632 10.1448L10.2278 1.4802ZM10.8381 2.70082C10.7538 2.61656 10.6172 2.61656 10.533 2.70082L9.40769 3.82609L11.6964 6.11477L12.8216 4.9895C12.9059 4.90524 12.9059 4.76861 12.8216 4.68435L10.8381 2.70082ZM10.9335 6.87767L8.64484 4.58898L2.57889 10.6549V12.7278C2.57889 12.847 2.6755 12.9436 2.79467 12.9436H4.86757L10.9335 6.87767Z" fill="black" fill-opacity="0.88"/>
<path d="M11.1786 1.44484C10.9063 1.17251 10.4648 1.17252 10.1924 1.44484L1.52784 10.1094C1.478 10.1593 1.45 10.2269 1.45 10.2974V13.8067C1.45 13.9535 1.56899 14.0725 1.71578 14.0725H5.22509C5.29558 14.0725 5.36318 14.0445 5.41302 13.9946L14.0776 5.33002C14.3499 5.05769 14.3499 4.61616 14.0776 4.34383L11.1786 1.44484ZM10.5683 2.73618C10.6331 2.67144 10.738 2.67144 10.8028 2.73618L12.7863 4.7197C12.851 4.78444 12.851 4.88941 12.7863 4.95415L11.6964 6.04406L9.4784 3.82609L10.5683 2.73618ZM8.64484 4.65969L10.8628 6.87767L4.84686 12.8936H2.79467C2.70312 12.8936 2.62889 12.8193 2.62889 12.7278V10.6757L8.64484 4.65969Z" stroke="black" stroke-opacity="0.88" stroke-width="0.1"/>
</g>
</g>
</svg>
