<svg width="18" height="18" viewBox="0 0 18 18" fill="none" xmlns="http://www.w3.org/2000/svg">
<g id="history" clip-path="url(#clip0_31_1686)">
<g id="Union">
<mask id="path-1-outside-1_31_1686" maskUnits="userSpaceOnUse" x="0.125" y="0.125" width="17" height="17" fill="black">
<rect fill="white" x="0.125" y="0.125" width="17" height="17"/>
<path fill-rule="evenodd" clip-rule="evenodd" d="M9 2.475C7.19394 2.475 5.56032 3.20789 4.37815 4.39412C4.35469 4.41767 4.32991 4.43912 4.30407 4.45847L5.40937 5.56378C5.53284 5.68724 5.57374 5.87099 5.51429 6.03518C5.45486 6.19935 5.30581 6.31432 5.13192 6.33013L1.63174 6.64833C1.49873 6.66042 1.36723 6.61281 1.2728 6.51838C1.17836 6.42394 1.13075 6.29244 1.14284 6.15944L1.46104 2.65926C1.47685 2.48537 1.59182 2.33632 1.756 2.27687C1.92018 2.21744 2.10392 2.25833 2.22739 2.38181L3.35921 3.51361C3.37811 3.48837 3.39901 3.46415 3.42192 3.44117C4.84702 2.01116 6.82066 1.125 9 1.125C13.3493 1.125 16.875 4.65076 16.875 9C16.875 13.3493 13.3493 16.875 9 16.875C4.65076 16.875 1.125 13.3493 1.125 9C1.125 8.62722 1.42721 8.325 1.8 8.325C2.17279 8.325 2.475 8.62722 2.475 9C2.475 12.6037 5.39635 15.525 9 15.525C12.6037 15.525 15.525 12.6037 15.525 9C15.525 5.39635 12.6037 2.475 9 2.475ZM9.05062 4.5H9.67503V8.62587L12.0578 10.1151L11.3423 11.2599L8.64228 9.5724C8.44491 9.44901 8.32503 9.23274 8.32503 9V4.5H9.05062Z"/>
</mask>
<path fill-rule="evenodd" clip-rule="evenodd" d="M9 2.475C7.19394 2.475 5.56032 3.20789 4.37815 4.39412C4.35469 4.41767 4.32991 4.43912 4.30407 4.45847L5.40937 5.56378C5.53284 5.68724 5.57374 5.87099 5.51429 6.03518C5.45486 6.19935 5.30581 6.31432 5.13192 6.33013L1.63174 6.64833C1.49873 6.66042 1.36723 6.61281 1.2728 6.51838C1.17836 6.42394 1.13075 6.29244 1.14284 6.15944L1.46104 2.65926C1.47685 2.48537 1.59182 2.33632 1.756 2.27687C1.92018 2.21744 2.10392 2.25833 2.22739 2.38181L3.35921 3.51361C3.37811 3.48837 3.39901 3.46415 3.42192 3.44117C4.84702 2.01116 6.82066 1.125 9 1.125C13.3493 1.125 16.875 4.65076 16.875 9C16.875 13.3493 13.3493 16.875 9 16.875C4.65076 16.875 1.125 13.3493 1.125 9C1.125 8.62722 1.42721 8.325 1.8 8.325C2.17279 8.325 2.475 8.62722 2.475 9C2.475 12.6037 5.39635 15.525 9 15.525C12.6037 15.525 15.525 12.6037 15.525 9C15.525 5.39635 12.6037 2.475 9 2.475ZM9.05062 4.5H9.67503V8.62587L12.0578 10.1151L11.3423 11.2599L8.64228 9.5724C8.44491 9.44901 8.32503 9.23274 8.32503 9V4.5H9.05062Z" fill="#0F4037"/>
<path d="M4.37815 4.39412L4.21878 4.2353L4.21878 4.2353L4.37815 4.39412ZM4.30407 4.45847L4.16916 4.27841L3.96144 4.43404L4.14497 4.61757L4.30407 4.45847ZM5.40937 5.56378L5.25027 5.72288L5.25028 5.72289L5.40937 5.56378ZM5.51429 6.03518L5.30273 5.95858L5.30273 5.95859L5.51429 6.03518ZM5.13192 6.33013L5.15229 6.55421L5.15229 6.55421L5.13192 6.33013ZM1.63174 6.64833L1.61137 6.42425L1.61136 6.42425L1.63174 6.64833ZM1.2728 6.51838L1.4319 6.35929L1.4319 6.35928L1.2728 6.51838ZM1.14284 6.15944L0.918762 6.13907L0.918761 6.13908L1.14284 6.15944ZM1.46104 2.65926L1.68512 2.67963L1.68512 2.67962L1.46104 2.65926ZM1.756 2.27687L1.67941 2.06531L1.6794 2.06531L1.756 2.27687ZM2.22739 2.38181L2.06829 2.5409L2.06829 2.5409L2.22739 2.38181ZM3.35921 3.51361L3.20011 3.67271L3.38368 3.85628L3.5393 3.64849L3.35921 3.51361ZM3.42192 3.44117L3.26255 3.28234L3.26254 3.28235L3.42192 3.44117ZM9.67503 4.5H9.90003V4.275H9.67503V4.5ZM9.67503 8.62587H9.45003V8.75058L9.55578 8.81667L9.67503 8.62587ZM12.0578 10.1151L12.2486 10.2344L12.3678 10.0436L12.177 9.9243L12.0578 10.1151ZM11.3423 11.2599L11.223 11.4507L11.4138 11.57L11.5331 11.3792L11.3423 11.2599ZM8.64228 9.5724L8.523 9.76319L8.52303 9.7632L8.64228 9.5724ZM8.32503 4.5V4.275H8.10003V4.5H8.32503ZM4.53752 4.55295C5.67919 3.40735 7.25613 2.7 9 2.7V2.25C7.13174 2.25 5.44145 3.00842 4.21878 4.2353L4.53752 4.55295ZM4.43898 4.63854C4.47341 4.61275 4.50637 4.58421 4.53752 4.55295L4.21878 4.2353C4.203 4.25113 4.18641 4.26548 4.16916 4.27841L4.43898 4.63854ZM5.56847 5.40469L4.46317 4.29938L4.14497 4.61757L5.25027 5.72288L5.56847 5.40469ZM5.72585 6.11177C5.81502 5.8655 5.75368 5.58988 5.56846 5.40468L5.25028 5.72289C5.312 5.78461 5.33246 5.87648 5.30273 5.95858L5.72585 6.11177ZM5.15229 6.55421C5.41312 6.53049 5.6367 6.35805 5.72586 6.11177L5.30273 5.95859C5.27302 6.04066 5.1985 6.09815 5.11154 6.10606L5.15229 6.55421ZM1.65211 6.8724L5.15229 6.55421L5.11155 6.10606L1.61137 6.42425L1.65211 6.8724ZM1.11369 6.67747C1.25534 6.81913 1.45261 6.89055 1.65211 6.8724L1.61136 6.42425C1.54486 6.4303 1.47911 6.4065 1.4319 6.35929L1.11369 6.67747ZM0.918761 6.13908C0.900631 6.33858 0.972046 6.53582 1.1137 6.67748L1.4319 6.35928C1.38468 6.31206 1.36087 6.24631 1.36691 6.1798L0.918761 6.13908ZM1.23697 2.63889L0.918762 6.13907L1.36691 6.17981L1.68512 2.67963L1.23697 2.63889ZM1.6794 2.06531C1.43314 2.15448 1.26067 2.37805 1.23697 2.63889L1.68512 2.67962C1.69302 2.59269 1.7505 2.51816 1.8326 2.48843L1.6794 2.06531ZM2.38649 2.22271C2.20129 2.0375 1.92567 1.97616 1.67941 2.06531L1.83259 2.48844C1.91468 2.45872 2.00656 2.47917 2.06829 2.5409L2.38649 2.22271ZM3.5183 3.35451L2.38649 2.22271L2.06829 2.5409L3.20011 3.67271L3.5183 3.35451ZM3.26254 3.28235C3.23217 3.31283 3.20434 3.34505 3.17911 3.37873L3.5393 3.64849C3.55187 3.6317 3.56586 3.61548 3.5813 3.59999L3.26254 3.28235ZM9 0.9C6.75844 0.9 4.72813 1.81171 3.26255 3.28234L3.58129 3.59999C4.96591 2.2106 6.88288 1.35 9 1.35V0.9ZM17.1 9C17.1 4.5265 13.4735 0.9 9 0.9V1.35C13.225 1.35 16.65 4.77502 16.65 9H17.1ZM9 17.1C13.4735 17.1 17.1 13.4735 17.1 9H16.65C16.65 13.225 13.225 16.65 9 16.65V17.1ZM0.9 9C0.9 13.4735 4.5265 17.1 9 17.1V16.65C4.77502 16.65 1.35 13.225 1.35 9H0.9ZM1.8 8.1C1.30295 8.1 0.9 8.50296 0.9 9H1.35C1.35 8.75148 1.55148 8.55 1.8 8.55V8.1ZM2.7 9C2.7 8.50296 2.29706 8.1 1.8 8.1V8.55C2.04852 8.55 2.25 8.75148 2.25 9H2.7ZM9 15.3C5.52061 15.3 2.7 12.4794 2.7 9H2.25C2.25 12.728 5.27208 15.75 9 15.75V15.3ZM15.3 9C15.3 12.4794 12.4794 15.3 9 15.3V15.75C12.728 15.75 15.75 12.728 15.75 9H15.3ZM9 2.7C12.4794 2.7 15.3 5.52061 15.3 9H15.75C15.75 5.27208 12.728 2.25 9 2.25V2.7ZM9.67503 4.275H9.05062V4.725H9.67503V4.275ZM9.90003 8.62587V4.5H9.45003V8.62587H9.90003ZM12.177 9.9243L9.79428 8.43507L9.55578 8.81667L11.9385 10.3059L12.177 9.9243ZM11.5331 11.3792L12.2486 10.2344L11.867 9.99585L11.1515 11.1407L11.5331 11.3792ZM8.52303 9.7632L11.223 11.4507L11.4615 11.0691L8.76153 9.3816L8.52303 9.7632ZM8.10003 9C8.10003 9.31033 8.25988 9.59869 8.523 9.76319L8.76155 9.38161C8.62993 9.29933 8.55003 9.15515 8.55003 9H8.10003ZM8.10003 4.5V9H8.55003V4.5H8.10003ZM9.05062 4.275H8.32503V4.725H9.05062V4.275Z" fill="#0F4037" mask="url(#path-1-outside-1_31_1686)"/>
</g>
</g>
<defs>
<clipPath id="clip0_31_1686">
<rect width="18" height="18" fill="white"/>
</clipPath>
</defs>
</svg>
