<svg width="16" height="16" viewBox="0 0 16 16" fill="none" xmlns="http://www.w3.org/2000/svg">
<g id="plus-Circle" clip-path="url(#clip0_31_1537)">
<g id="Union">
<mask id="path-1-outside-1_31_1537" maskUnits="userSpaceOnUse" x="0" y="0" width="16" height="16" fill="black">
<rect fill="white" width="16" height="16"/>
<path fill-rule="evenodd" clip-rule="evenodd" d="M8 1C4.134 1 1 4.134 1 8C1 11.866 4.134 15 8 15C11.866 15 15 11.866 15 8C15 4.134 11.866 1 8 1ZM2.07692 8C2.07692 4.72877 4.72877 2.07692 8 2.07692C11.2712 2.07692 13.9231 4.72877 13.9231 8C13.9231 11.2712 11.2712 13.9231 8 13.9231C4.72877 13.9231 2.07692 11.2712 2.07692 8ZM11.4103 7.46154H8.53846V4.58974H7.46154V7.46154H4.58974V8.53846H7.46154V11.4103H8.53846V8.53846H11.4103V7.46154Z"/>
</mask>
<path fill-rule="evenodd" clip-rule="evenodd" d="M8 1C4.134 1 1 4.134 1 8C1 11.866 4.134 15 8 15C11.866 15 15 11.866 15 8C15 4.134 11.866 1 8 1ZM2.07692 8C2.07692 4.72877 4.72877 2.07692 8 2.07692C11.2712 2.07692 13.9231 4.72877 13.9231 8C13.9231 11.2712 11.2712 13.9231 8 13.9231C4.72877 13.9231 2.07692 11.2712 2.07692 8ZM11.4103 7.46154H8.53846V4.58974H7.46154V7.46154H4.58974V8.53846H7.46154V11.4103H8.53846V8.53846H11.4103V7.46154Z" fill="black" fill-opacity="0.88"/>
<path d="M8.53846 7.46154H8.33846V7.66154H8.53846V7.46154ZM11.4103 7.46154H11.6103V7.26154H11.4103V7.46154ZM8.53846 4.58974H8.73846V4.38974H8.53846V4.58974ZM7.46154 4.58974V4.38974H7.26154V4.58974H7.46154ZM7.46154 7.46154V7.66154H7.66154V7.46154H7.46154ZM4.58974 7.46154V7.26154H4.38974V7.46154H4.58974ZM4.58974 8.53846H4.38974V8.73846H4.58974V8.53846ZM7.46154 8.53846H7.66154V8.33846H7.46154V8.53846ZM7.46154 11.4103H7.26154V11.6103H7.46154V11.4103ZM8.53846 11.4103V11.6103H8.73846V11.4103H8.53846ZM8.53846 8.53846V8.33846H8.33846V8.53846H8.53846ZM11.4103 8.53846V8.73846H11.6103V8.53846H11.4103ZM1.2 8C1.2 4.24446 4.24446 1.2 8 1.2V0.8C4.02355 0.8 0.8 4.02355 0.8 8H1.2ZM8 14.8C4.24446 14.8 1.2 11.7556 1.2 8H0.8C0.8 11.9765 4.02355 15.2 8 15.2V14.8ZM14.8 8C14.8 11.7556 11.7556 14.8 8 14.8V15.2C11.9765 15.2 15.2 11.9765 15.2 8H14.8ZM8 1.2C11.7556 1.2 14.8 4.24446 14.8 8H15.2C15.2 4.02355 11.9765 0.8 8 0.8V1.2ZM8 1.87692C4.61832 1.87692 1.87692 4.61832 1.87692 8H2.27692C2.27692 4.83923 4.83923 2.27692 8 2.27692V1.87692ZM14.1231 8C14.1231 4.61832 11.3816 1.87692 8 1.87692V2.27692C11.1607 2.27692 13.7231 4.83923 13.7231 8H14.1231ZM8 14.1231C11.3816 14.1231 14.1231 11.3816 14.1231 8H13.7231C13.7231 11.1607 11.1607 13.7231 8 13.7231V14.1231ZM1.87692 8C1.87692 11.3816 4.61832 14.1231 8 14.1231V13.7231C4.83923 13.7231 2.27692 11.1607 2.27692 8H1.87692ZM8.53846 7.66154H11.4103V7.26154H8.53846V7.66154ZM8.33846 4.58974V7.46154H8.73846V4.58974H8.33846ZM7.46154 4.78974H8.53846V4.38974H7.46154V4.78974ZM7.66154 7.46154V4.58974H7.26154V7.46154H7.66154ZM4.58974 7.66154H7.46154V7.26154H4.58974V7.66154ZM4.78974 8.53846V7.46154H4.38974V8.53846H4.78974ZM7.46154 8.33846H4.58974V8.73846H7.46154V8.33846ZM7.66154 11.4103V8.53846H7.26154V11.4103H7.66154ZM8.53846 11.2103H7.46154V11.6103H8.53846V11.2103ZM8.33846 8.53846V11.4103H8.73846V8.53846H8.33846ZM11.4103 8.33846H8.53846V8.73846H11.4103V8.33846ZM11.2103 7.46154V8.53846H11.6103V7.46154H11.2103Z" fill="black" fill-opacity="0.88" mask="url(#path-1-outside-1_31_1537)"/>
</g>
</g>
<defs>
<clipPath id="clip0_31_1537">
<rect width="16" height="16" fill="white"/>
</clipPath>
</defs>
</svg>
