<svg width="16" height="16" viewBox="0 0 16 16" fill="none" xmlns="http://www.w3.org/2000/svg">
<g id="trash">
<g id="Vector">
<path fill-rule="evenodd" clip-rule="evenodd" d="M11.9667 1.5C12.0771 1.5 12.1667 1.58954 12.1667 1.7V4.16667H14.8C14.9105 4.16667 15 4.25621 15 4.36667V4.96667C15 5.07712 14.9105 5.16667 14.8 5.16667H13.5V13.5C13.5 14.0523 13.0523 14.5 12.5 14.5H3.5C2.94772 14.5 2.5 14.0523 2.5 13.5V5.16667H1.2C1.08954 5.16667 1 5.07712 1 4.96667V4.36667C1 4.25621 1.08954 4.16667 1.2 4.16667H3.83333V1.7C3.83333 1.58954 3.92288 1.5 4.03333 1.5H11.9667ZM11.1667 2.5V4.16667H4.83333V2.5H11.1667ZM3.5 5.36667C3.5 5.25621 3.58954 5.16667 3.7 5.16667H12.3C12.4105 5.16667 12.5 5.25621 12.5 5.36667V13.3C12.5 13.4105 12.4105 13.5 12.3 13.5H3.7C3.58954 13.5 3.5 13.4105 3.5 13.3V5.36667ZM9.99995 10.5785L8.74999 9.32847L9.99995 8.07844L9.24999 7.32848L7.99996 8.57844L6.74993 7.32848L5.99995 8.07844L7.24993 9.32847L5.99995 10.5784L6.74993 11.3285L7.99996 10.0784L9.24999 11.3285L9.99995 10.5785Z" fill="black" fill-opacity="0.88"/>
<path d="M12.1667 4.16667H12.0667V4.26667H12.1667V4.16667ZM13.5 5.16667V5.06667H13.4V5.16667H13.5ZM2.5 5.16667H2.6V5.06667H2.5V5.16667ZM3.83333 4.16667V4.26667H3.93333V4.16667H3.83333ZM11.1667 4.16667V4.26667H11.2667V4.16667H11.1667ZM11.1667 2.5H11.2667V2.4H11.1667V2.5ZM4.83333 4.16667H4.73333V4.26667H4.83333V4.16667ZM4.83333 2.5V2.4H4.73333V2.5H4.83333ZM8.74999 9.32847L8.67928 9.25776L8.60857 9.32847L8.67928 9.39918L8.74999 9.32847ZM9.99995 10.5785L10.0707 10.6492L10.1414 10.5785L10.0707 10.5078L9.99995 10.5785ZM9.99995 8.07844L10.0707 8.14915L10.1414 8.07844L10.0707 8.00773L9.99995 8.07844ZM9.24999 7.32848L9.3207 7.25777L9.24999 7.18706L9.17928 7.25777L9.24999 7.32848ZM7.99996 8.57844L7.92925 8.64915L7.99996 8.71986L8.07067 8.64915L7.99996 8.57844ZM6.74993 7.32848L6.82064 7.25777L6.74993 7.18706L6.67922 7.25777L6.74993 7.32848ZM5.99995 8.07844L5.92924 8.00773L5.85853 8.07844L5.92923 8.14915L5.99995 8.07844ZM7.24993 9.32847L7.32064 9.39918L7.39135 9.32847L7.32064 9.25776L7.24993 9.32847ZM5.99995 10.5784L5.92924 10.5077L5.85854 10.5784L5.92924 10.6491L5.99995 10.5784ZM6.74993 11.3285L6.67921 11.3992L6.74993 11.4699L6.82064 11.3992L6.74993 11.3285ZM7.99996 10.0784L8.07067 10.0077L7.99996 9.93701L7.92925 10.0077L7.99996 10.0784ZM9.24999 11.3285L9.17928 11.3992L9.24999 11.4699L9.3207 11.3992L9.24999 11.3285ZM12.2667 1.7C12.2667 1.53432 12.1324 1.4 11.9667 1.4V1.6C12.0219 1.6 12.0667 1.64477 12.0667 1.7H12.2667ZM12.2667 4.16667V1.7H12.0667V4.16667H12.2667ZM14.8 4.06667H12.1667V4.26667H14.8V4.06667ZM15.1 4.36667C15.1 4.20098 14.9657 4.06667 14.8 4.06667V4.26667C14.8552 4.26667 14.9 4.31144 14.9 4.36667H15.1ZM15.1 4.96667V4.36667H14.9V4.96667H15.1ZM14.8 5.26667C14.9657 5.26667 15.1 5.13235 15.1 4.96667H14.9C14.9 5.0219 14.8552 5.06667 14.8 5.06667V5.26667ZM13.5 5.26667H14.8V5.06667H13.5V5.26667ZM13.6 13.5V5.16667H13.4V13.5H13.6ZM12.5 14.6C13.1075 14.6 13.6 14.1075 13.6 13.5H13.4C13.4 13.9971 12.9971 14.4 12.5 14.4V14.6ZM3.5 14.6H12.5V14.4H3.5V14.6ZM2.4 13.5C2.4 14.1075 2.89249 14.6 3.5 14.6V14.4C3.00294 14.4 2.6 13.9971 2.6 13.5H2.4ZM2.4 5.16667V13.5H2.6V5.16667H2.4ZM1.2 5.26667H2.5V5.06667H1.2V5.26667ZM0.9 4.96667C0.9 5.13235 1.03431 5.26667 1.2 5.26667V5.06667C1.14477 5.06667 1.1 5.0219 1.1 4.96667H0.9ZM0.9 4.36667V4.96667H1.1V4.36667H0.9ZM1.2 4.06667C1.03431 4.06667 0.9 4.20098 0.9 4.36667H1.1C1.1 4.31144 1.14477 4.26667 1.2 4.26667V4.06667ZM3.83333 4.06667H1.2V4.26667H3.83333V4.06667ZM3.73333 1.7V4.16667H3.93333V1.7H3.73333ZM4.03333 1.4C3.86765 1.4 3.73333 1.53432 3.73333 1.7H3.93333C3.93333 1.64477 3.9781 1.6 4.03333 1.6V1.4ZM11.9667 1.4H4.03333V1.6H11.9667V1.4ZM11.2667 4.16667V2.5H11.0667V4.16667H11.2667ZM4.83333 4.26667H11.1667V4.06667H4.83333V4.26667ZM4.73333 2.5V4.16667H4.93333V2.5H4.73333ZM11.1667 2.4H4.83333V2.6H11.1667V2.4ZM3.7 5.06667C3.53431 5.06667 3.4 5.20098 3.4 5.36667H3.6C3.6 5.31144 3.64477 5.26667 3.7 5.26667V5.06667ZM12.3 5.06667H3.7V5.26667H12.3V5.06667ZM12.6 5.36667C12.6 5.20098 12.4657 5.06667 12.3 5.06667V5.26667C12.3552 5.26667 12.4 5.31144 12.4 5.36667H12.6ZM12.6 13.3V5.36667H12.4V13.3H12.6ZM12.3 13.6C12.4657 13.6 12.6 13.4657 12.6 13.3H12.4C12.4 13.3552 12.3552 13.4 12.3 13.4V13.6ZM3.7 13.6H12.3V13.4H3.7V13.6ZM3.4 13.3C3.4 13.4657 3.53431 13.6 3.7 13.6V13.4C3.64477 13.4 3.6 13.3552 3.6 13.3H3.4ZM3.4 5.36667V13.3H3.6V5.36667H3.4ZM8.67928 9.39918L9.92923 10.6492L10.0707 10.5078L8.8207 9.25776L8.67928 9.39918ZM9.92923 8.00773L8.67928 9.25776L8.8207 9.39918L10.0707 8.14915L9.92923 8.00773ZM9.17928 7.39919L9.92924 8.14915L10.0707 8.00773L9.3207 7.25777L9.17928 7.39919ZM8.07067 8.64915L9.32069 7.39919L9.17928 7.25777L7.92925 8.50773L8.07067 8.64915ZM6.67922 7.39919L7.92925 8.64915L8.07067 8.50773L6.82064 7.25777L6.67922 7.39919ZM6.07066 8.14915L6.82064 7.39919L6.67922 7.25777L5.92924 8.00773L6.07066 8.14915ZM7.32064 9.25776L6.07066 8.00773L5.92923 8.14915L7.17921 9.39918L7.32064 9.25776ZM6.07066 10.6491L7.32064 9.39918L7.17922 9.25776L5.92924 10.5077L6.07066 10.6491ZM6.82064 11.2578L6.07067 10.5077L5.92924 10.6491L6.67921 11.3992L6.82064 11.2578ZM7.92925 10.0077L6.67922 11.2578L6.82064 11.3992L8.07067 10.1491L7.92925 10.0077ZM9.3207 11.2578L8.07067 10.0077L7.92925 10.1491L9.17928 11.3992L9.3207 11.2578ZM9.92924 10.5078L9.17928 11.2578L9.3207 11.3992L10.0707 10.6492L9.92924 10.5078Z" fill="black" fill-opacity="0.88"/>
</g>
</g>
</svg>
